# Alias OBJ Model File
# Exported from SketchUp, (c) 2000-2006 Google, Inc.
# File units = meters

mtllib ModulParet.mtl

g Mesh1 Model

usemtl Cladding_Stucco_White
v 0 0 -0
vt 0 0
vn 1 0 -0
v 0 0 -1
vt 2.18723 0
v 0 2.74958 -1
vt 2.18723 4.00931
v 0 2.74958 -0
vt 0 4.00931
f 1/1/1 2/2/1 3/3/1 4/4/1 

usemtl FrontColor
vt 0 39.3701
vn 0 -1 -0
v -0.08 0 -0
vt 3.14961 0
v -0.08 0 -1
vt 3.14961 39.3701
f 2/5/2 1/1/2 5/6/2 6/7/2 

vn 0 0 1
vt 0 108.251
v -0.08 2.74958 -0
vt -3.14961 108.251
vt -3.14961 0
f 1/1/3 4/8/3 7/9/3 5/10/3 

vn 0 1 -0
v -0.08 2.74958 -1
vt -3.14961 39.3701
f 4/1/4 3/5/4 8/11/4 7/10/4 

vn 0 0 -1
vt 3.14961 108.251
f 3/8/5 2/1/5 6/6/5 8/12/5 

usemtl Brick_Antique
vt -0.678794 0
vn -1 0 -0
vt 0 2.92571
vt -0.678794 2.92571
f 6/13/6 5/1/6 7/14/6 8/15/6 

