# Alias OBJ Model File
# Exported from SketchUp, (c) 2000-2012 Trimble Navigation Limited
# File units = meters

mtllib ModulPortaDoble.mtl

g Mesh1 Model

usemtl Brick_Antique
v -0.08 0 -2
vt -1.35759 0
vn -1 0 -0
v -0.08 0 -1.8
vt -1.22183 0
v -0.08 2 -1.8
vt -1.22183 2.12811
v -0.08 2 -0.201
vt -0.136438 2.12811
v -0.08 0 -0.201
vt -0.136438 0
v -0.08 0 -0
vt 0 0
v -0.08 3.00 -0
vt 0 3.19323
v -0.08 3.00 -2
vt -1.35759 3.19323
f 1/1/1 2/2/1 3/3/1 4/4/1 5/5/1 6/6/1 7/7/1 8/8/1 

usemtl FrontColor
v 0 0 -1.8
vt 0 70.8661
vn 0 -1 -0
vt 3.14961 70.8661
vt 3.14961 78.7402
v 0 0 -2
vt 0 78.7402
f 9/9/2 2/10/2 1/11/2 10/12/2 

usemtl Cladding_Stucco_White
vn 0 0 1
v 0 2 -1.8
vt 0 2.9163
vt -0.174978 2.9163
vt -0.174978 0
f 9/6/3 11/13/3 3/14/3 2/15/3 

v 0 0 -0
vn 1 0 -0
v 0 0 -0.201
vt 0.439633 0
v 0 2 -0.201
vt 0.439633 2.9163
vt 3.93701 2.9163
vt 3.93701 0
vt 4.37445 0
v 0 3.00 -2
vt 4.37445 4.37591
v 0 3.00 -0
vt 0 4.37591
f 12/6/4 13/16/4 14/17/4 11/18/4 9/19/4 10/20/4 15/21/4 16/22/4 

usemtl FrontColor
vt 3.14961 0
vt 3.14961 7.91339
vt 0 7.91339
f 6/23/2 5/24/2 13/25/2 12/6/2 

usemtl Cladding_Stucco_White
vt 0.174978 2.9163
vn -1.43057e-032 -2.99587e-017 -1
vt -6.28926e-033 2.9163
vt -6.28926e-033 8.78055e-018
vt 0.174978 8.78055e-018
f 4/26/5 14/27/5 13/28/5 5/29/5 

vt 0 2.62467
vt 0 0.293088
vt 0.174978 0.293088
vt 0.174978 2.62467
f 11/30/2 14/31/2 4/32/2 3/33/2 

usemtl FrontColor
vt 0 118.15
vt -3.14961 118.15
vt -3.14961 0
f 12/6/3 16/34/3 7/35/3 6/36/3 

vn 0 1 -0
vt -3.14961 78.7402
f 16/6/6 15/12/6 8/37/6 7/36/6 

vn 0 0 -1
vt 3.14961 118.15
f 15/34/7 10/6/7 1/23/7 8/38/7 

